<svg xmlns="http://www.w3.org/2000/svg" viewBox="0 0 128 128">
  <defs>
    <linearGradient id="grad" x1="0%" y1="0%" x2="100%" y2="100%">
      <stop offset="0%" stop-color="#0f4b82"/>
      <stop offset="100%" stop-color="#f2c94c"/>
    </linearGradient>
  </defs>
  <rect width="128" height="128" rx="32" fill="url(#grad)"/>
  <path d="M40 38h18c7.5 0 12.6 3.6 15.9 10.5 1.7 3.4 2.1 7.1 2.1 10.4 0 4.4-.8 8.2-2.7 11.3-3.5 5.5-9.6 8.4-17.2 8.4H40V38Zm17.3 28.7h5.2c3.4 0 5.9-1.9 7.2-5.6 0.7-1.7 0.9-3.8 0.9-6.2 0-2.4-.2-4.5-.9-6.2-1.3-3.7-3.8-5.6-7.2-5.6h-5.2v23.6Z" fill="#fff"/>
</svg>
