<svg xmlns="http://www.w3.org/2000/svg" viewBox="0 0 740 520">
  <defs>
    <linearGradient id="bg" x1="0" y1="0" x2="1" y2="1">
      <stop offset="0%" stop-color="#0f4b82"/>
      <stop offset="100%" stop-color="#38bdf8"/>
    </linearGradient>
  </defs>
  <rect width="740" height="520" rx="40" fill="#0b1220" />
  <rect x="40" y="40" width="660" height="160" rx="28" fill="#ffffff0f" stroke="#ffffff22" stroke-width="2" />
  <rect x="60" y="68" width="160" height="28" rx="14" fill="#ffffff2d" />
  <rect x="60" y="108" width="280" height="18" rx="9" fill="#ffffff1a" />
  <rect x="60" y="138" width="240" height="18" rx="9" fill="#ffffff1a" />
  <rect x="60" y="188" width="620" height="18" rx="9" fill="#ffffff10" />
  <rect x="60" y="220" width="520" height="18" rx="9" fill="#ffffff10" />
  <rect x="60" y="252" width="580" height="18" rx="9" fill="#ffffff10" />
  <rect x="60" y="294" width="260" height="18" rx="9" fill="#ffffff13" />
  <rect x="60" y="330" width="580" height="18" rx="9" fill="#ffffff13" />
  <circle cx="560" cy="386" r="60" fill="url(#bg)" opacity="0.3" />
  <path d="M120 400C180 340 260 360 330 320C380 292 440 304 490 270C540 236 600 250 640 220" fill="none" stroke="#fff" stroke-opacity="0.4" stroke-width="12" stroke-linecap="round" />
  <path d="M130 420C200 360 280 380 340 340C390 312 450 330 500 290C540 260 600 280 640 240" fill="none" stroke="#7dd3fc" stroke-width="8" stroke-linecap="round" opacity="0.8" />
</svg>
