<svg xmlns="http://www.w3.org/2000/svg" viewBox="0 0 740 520">
  <defs>
    <linearGradient id="bg2" x1="0" y1="0" x2="1" y2="1">
      <stop offset="0%" stop-color="#0f172a"/>
      <stop offset="100%" stop-color="#7dd3fc"/>
    </linearGradient>
  </defs>
  <rect width="740" height="520" rx="40" fill="#111827" />
  <rect x="40" y="40" width="660" height="140" rx="28" fill="#ffffff0f" stroke="#ffffff22" stroke-width="2" />
  <rect x="60" y="64" width="200" height="26" rx="13" fill="#ffffff2e" />
  <rect x="60" y="104" width="260" height="16" rx="8" fill="#ffffff17" />
  <rect x="500" y="68" width="120" height="32" rx="16" fill="#ffffff12" />
  <rect x="62" y="210" width="320" height="38" rx="20" fill="#ffffff11" />
  <rect x="62" y="266" width="240" height="26" rx="13" fill="#ffffff12" />
  <rect x="62" y="310" width="560" height="20" rx="10" fill="#ffffff0f" />
  <rect x="62" y="344" width="420" height="20" rx="10" fill="#ffffff0f" />
  <rect x="62" y="380" width="330" height="20" rx="10" fill="#ffffff0f" />
  <rect x="450" y="210" width="170" height="160" rx="28" fill="url(#bg2)" opacity="0.14" />
  <path d="M120 430C210 370 310 390 380 340C420 310 490 330 540 290" fill="none" stroke="#38bdf8" stroke-width="10" opacity="0.9" stroke-linecap="round" />
  <circle cx="588" cy="320" r="42" fill="#ffffff14" />
  <circle cx="580" cy="315" r="18" fill="#ffffff2d" />
</svg>
