<svg xmlns="http://www.w3.org/2000/svg" viewBox="0 0 1600 900" preserveAspectRatio="xMidYMid slice">
  <defs>
    <linearGradient id="bg" x1="0" y1="0" x2="1" y2="1">
      <stop offset="0%" stop-color="#0f4b82" stop-opacity="0.9"/>
      <stop offset="40%" stop-color="#1e3a8a" stop-opacity="0.55"/>
      <stop offset="100%" stop-color="#0f172a" stop-opacity="0.85"/>
    </linearGradient>
    <linearGradient id="gold" x1="0" y1="0" x2="1" y2="1">
      <stop offset="0%" stop-color="#fec84b" stop-opacity="0.35"/>
      <stop offset="100%" stop-color="#d97706" stop-opacity="0.05"/>
    </linearGradient>
  </defs>
  <rect width="1600" height="900" fill="url(#bg)" />
  <circle cx="250" cy="200" r="210" fill="url(#gold)" />
  <circle cx="1300" cy="160" r="160" fill="#ffffff10" />
  <path d="M1600 550c-230 80-460 80-690 0-210-70-420-70-630 0v230h1320V550Z" fill="#ffffff08" />
  <path d="M0 680c280-100 520-100 760 0 190 75 390 75 590 0v180H0V680Z" fill="#ffffff05" />
  <path d="M460 360C640 260 840 320 1020 240" fill="none" stroke="#fff8" stroke-width="18" stroke-linecap="round" />
  <path d="M450 450C620 360 840 420 1030 340" fill="none" stroke="#fff8" stroke-width="28" stroke-linecap="round" opacity="0.5" />
</svg>
