<svg xmlns="http://www.w3.org/2000/svg" viewBox="0 0 280 80">
  <defs>
    <linearGradient id="brand" x1="0" y1="0" x2="1" y2="1">
      <stop offset="0%" stop-color="#0f4b82"/>
      <stop offset="100%" stop-color="#f2c94c"/>
    </linearGradient>
  </defs>
  <rect width="280" height="80" rx="24" fill="#fff"/>
  <path d="M32 22h22c9.3 0 15.7 4.3 19.8 13.1 2.1 4.5 2.4 9.2 2.4 13.3 0 5.7-1.3 10.6-4.4 14.7-5.7 8.9-15.5 13.6-28 13.6H32V22Zm21.2 37.6h6.3c4.2 0 7.3-2.4 8.8-7 0.9-2.3 1.2-5.1 1.2-8.5 0-3.4-.3-6.2-1.2-8.5-1.5-4.6-4.6-7-8.8-7h-6.3v30.9Z" fill="url(#brand)"/>
  <text x="68" y="52" fill="#0f4b82" font-family="DM Sans, sans-serif" font-size="30" font-weight="700">Paitonix</text>
</svg>
