<svg xmlns="http://www.w3.org/2000/svg" viewBox="0 0 560 360">
  <defs>
    <linearGradient id="g2" x1="0" y1="0" x2="1" y2="1">
      <stop offset="0%" stop-color="#1e3a8a"/>
      <stop offset="100%" stop-color="#60a5fa"/>
    </linearGradient>
  </defs>
  <rect width="560" height="360" rx="32" fill="#0f172a" />
  <path d="M34 296C176 204 296 242 416 150C496 90 520 118 526 142V324H34V296Z" fill="url(#g2)" opacity="0.18" />
  <rect x="52" y="72" width="200" height="24" rx="12" fill="#ffffff20" />
  <rect x="52" y="112" width="260" height="20" rx="10" fill="#ffffff14" />
  <rect x="52" y="148" width="320" height="18" rx="9" fill="#ffffff14" />
  <rect x="52" y="186" width="460" height="20" rx="10" fill="#ffffff14" />
  <rect x="52" y="226" width="320" height="24" rx="12" fill="#ffffff20" />
  <circle cx="460" cy="182" r="38" fill="#fff" opacity="0.12" />
  <circle cx="466" cy="182" r="18" fill="#fff" opacity="0.22" />
  <path d="M390 92L448 124L390 156" stroke="#fff" stroke-width="6" stroke-linecap="round" stroke-linejoin="round" />
</svg>
