<svg xmlns="http://www.w3.org/2000/svg" viewBox="0 0 560 360">
  <defs>
    <linearGradient id="g1" x1="0" y1="0" x2="1" y2="1">
      <stop offset="0%" stop-color="#0f4b82"/>
      <stop offset="100%" stop-color="#38bdf8"/>
    </linearGradient>
  </defs>
  <rect width="560" height="360" rx="32" fill="#0f172a" />
  <path d="M48 240C120 160 240 180 316 130C392 80 460 140 512 192V320H48V240Z" fill="url(#g1)" opacity="0.15" />
  <circle cx="140" cy="130" r="42" fill="#ffffff22" />
  <rect x="72" y="190" width="200" height="36" rx="18" fill="#ffffff20" />
  <rect x="72" y="240" width="340" height="24" rx="12" fill="#ffffff14" />
  <rect x="72" y="280" width="260" height="20" rx="10" fill="#ffffff14" />
  <path d="M380 110H428C444 110 456 122 456 138V208C456 224 444 236 428 236H380V110Z" fill="#ffffff08" stroke="#ffffff2d" stroke-width="3" />
  <path d="M398 130H430" stroke="#fff" stroke-width="4" stroke-linecap="round" />
  <path d="M398 156H430" stroke="#fff" stroke-width="4" stroke-linecap="round" />
  <path d="M398 182H430" stroke="#fff" stroke-width="4" stroke-linecap="round" />
</svg>
